<svg xmlns="http://www.w3.org/2000/svg" xmlns:svg="http://www.w3.org/2000/svg" id="svg2" width="200" height="125" version="1.0"><metadata id="metadata7"/><g id="layer1" transform="translate(-70.820961,-116.67348)"><rect style="fill:#999;fill-opacity:1" id="rect2383" width="200" height="125" x="70.821" y="116.673"/><path style="fill:navy;fill-opacity:1" id="path2387" d="M 167.70051,166.31409 A 6.5318136,7.7470345 0 1 1 154.63689,166.31409 A 6.5318136,7.7470345 0 1 1 167.70051,166.31409 z" transform="matrix(0.1530968,0,0,0.1290816,146.14655,157.70539)"/><path style="fill:navy;fill-opacity:1" id="path2391" d="M 167.70051,166.31409 A 6.5318136,7.7470345 0 1 1 154.63689,166.31409 A 6.5318136,7.7470345 0 1 1 167.70051,166.31409 z" transform="matrix(0.1530968,0,0,0.1290816,246.12559,95.205095)"/><path style="fill:navy;fill-opacity:1" id="path2393" d="M 167.70051,166.31409 A 6.5318136,7.7470345 0 1 1 154.63689,166.31409 A 6.5318136,7.7470345 0 1 1 167.70051,166.31409 z" transform="matrix(0.1530968,0,0,0.1290816,46.146587,220.20509)"/><text style="font-size:12px;font-style:normal;font-variant:normal;font-weight:400;font-stretch:normal;text-align:start;line-height:125%;writing-mode:lr-tb;text-anchor:start;fill:navy;fill-opacity:1;stroke:none;stroke-width:1px;stroke-linecap:butt;stroke-linejoin:miter;stroke-opacity:1;font-family:Bitstream Vera Sans;-inkscape-font-specification:Bitstream Vera Sans" id="text2415" x="71.628" y="238.532" xml:space="preserve"><tspan id="tspan2417" x="71.628" y="238.532" style="font-size:12px;font-style:normal;font-variant:normal;font-weight:400;font-stretch:normal;text-align:start;line-height:125%;writing-mode:lr-tb;text-anchor:start;fill:navy;font-family:Bitstream Vera Sans;-inkscape-font-specification:Bitstream Vera Sans">(-0.5,-0.667)</tspan></text><text style="font-size:12px;font-style:normal;font-variant:normal;font-weight:400;font-stretch:normal;text-align:start;line-height:125%;writing-mode:lr-tb;text-anchor:start;fill:navy;fill-opacity:1;stroke:none;stroke-width:1px;stroke-linecap:butt;stroke-linejoin:miter;stroke-opacity:1;font-family:Bitstream Vera Sans;-inkscape-font-specification:Bitstream Vera Sans" id="text2423" x="157.754" y="174.893" xml:space="preserve"><tspan id="tspan2425" x="157.754" y="174.893" style="font-size:12px;font-style:normal;font-variant:normal;font-weight:400;font-stretch:normal;text-align:start;line-height:125%;writing-mode:lr-tb;text-anchor:start;fill:navy;font-family:Bitstream Vera Sans;-inkscape-font-specification:Bitstream Vera Sans">(0,0)</tspan></text><text style="font-size:12px;font-style:normal;font-variant:normal;font-weight:400;font-stretch:normal;text-align:start;line-height:125%;writing-mode:lr-tb;text-anchor:start;fill:navy;fill-opacity:1;stroke:none;stroke-width:1px;stroke-linecap:butt;stroke-linejoin:miter;stroke-opacity:1;font-family:Bitstream Vera Sans;-inkscape-font-specification:Bitstream Vera Sans" id="text2427" x="184.001" y="127.98" xml:space="preserve"><tspan id="tspan2431" x="184.001" y="127.98" style="font-size:12px;font-style:normal;font-variant:normal;font-weight:400;font-stretch:normal;text-align:start;line-height:125%;writing-mode:lr-tb;text-anchor:start;font-family:Bitstream Vera Sans;-inkscape-font-specification:Bitstream Vera Sans">(+0.5,+0.667)</tspan></text></g></svg>